<svg width="360" height="360" viewBox="0 0 360 360" fill="none" xmlns="http://www.w3.org/2000/svg">
<rect width="360" height="360" rx="180" fill="#FBFBFB"/>
<path d="M241.557 83.4702H250.856L257.123 84.2788L264.4 86.0982L269.252 87.7155L273.497 89.5349L277.136 91.5565L281.988 94.791L284.616 96.8125L287.446 99.2384L289.67 101.26L291.085 102.877L293.106 105.101L295.734 108.538L297.352 111.166L299.778 115.411L301.395 118.443L303.214 122.689L304.832 127.54L305.842 131.786L306.449 135.627L306.853 139.67V149.373L306.247 154.629L305.236 159.683L303.821 164.535L301.799 169.387L300.182 172.823L297.554 177.271L295.33 180.505L293.309 183.133L291.085 185.761L288.659 188.389L288.053 189.198H287.648L287.244 190.007L262.379 214.872L260.964 216.489L256.516 220.937L254.899 222.352L246.206 231.044L246.004 231.449H245.6L245.195 232.257L218.713 258.74L217.096 260.155L214.265 262.581L210.222 265.613L205.573 268.645L201.934 270.667L198.093 272.284L193.241 273.901L187.985 275.114L183.538 275.923L179.697 276.327L175.856 276.53H172.217L167.163 276.125L163.929 275.721L156.853 273.901L153.214 272.689L148.363 270.465L145.128 268.848L144.117 269.05L140.681 270.869L136.435 272.689L131.786 274.104L125.721 275.519L119.858 276.327L117.23 276.53H111.772L104.899 275.923L99.2386 274.912L94.7911 273.699L89.1307 271.476L84.6833 269.252L80.2359 266.624L76.3949 263.794L73.7669 261.368L71.7453 259.548L69.3194 257.123L67.9043 255.505L65.8828 253.282L63.659 250.249L60.6267 244.993L57.9987 239.535L56.3814 235.29L54.7642 229.427L53.7534 224.171L53.1469 218.713V211.435L53.7534 205.977L54.7642 200.923L55.9771 196.273L57.3922 192.028L59.8181 186.772L62.4461 182.123L64.872 178.484L67.0957 175.654L69.5216 172.823L72.3518 169.791L81.0445 161.098L81.651 160.29H82.0553V159.885L83.066 158.875L83.6725 158.672L84.0768 157.864H84.4811L84.8855 157.055H85.2898L85.6941 156.246H86.0984L86.5027 155.438H86.907L87.3113 154.629L88.9286 153.012H89.3329L89.535 152.406L91.1523 150.99L112.177 129.966L113.794 128.551L116.826 126.125L119.656 124.104L123.902 121.273L127.136 119.454L131.381 117.432L136.233 115.613L140.883 114.4L146.139 113.389L148.969 112.985L151.597 112.783H157.662L162.918 113.187L168.578 113.996L173.632 115.209L177.675 116.624L180.505 117.837L183.336 119.252L184.144 119.05L185.559 117.635L186.974 116.017L191.422 111.57H191.826L192.028 110.963L193.241 109.953L194.656 108.335L200.115 102.877L201.732 101.462L203.551 99.6427L205.168 98.2276L207.796 96.0039L211.233 93.578L215.276 91.1522L219.522 88.9284L224.373 87.109L229.023 85.6939L236.301 84.0767L241.557 83.4702ZM240.344 99.8449L235.492 100.451L231.044 101.664L227.204 103.282L223.363 105.303L220.128 107.325L217.298 109.548L214.468 111.974L209.616 116.826L207.999 118.241L199.912 126.327L198.699 127.338L197.891 128.349L198.093 129.562L199.508 131.381L201.327 133.201L204.966 137.648L206.988 140.68L209.616 145.33L212.042 150.384L213.861 155.438L215.074 160.087L215.883 164.131L216.287 167.365L216.489 170.6V176.866L216.085 181.718L215.074 187.379L213.659 193.039L212.042 197.486L210.222 201.53L208.605 204.562L205.775 208.807L203.753 211.435L201.934 213.659L199.306 216.691L197.689 218.308V218.713L196.88 219.117L195.465 220.734L177.473 238.726L176.058 240.344L173.228 243.174L171.611 244.589L169.387 246.206L167.365 247.015L166.557 247.217H162.918L160.896 246.408L158.875 244.589L157.662 242.365L157.055 240.141L157.257 237.918L157.864 235.896L159.077 233.875L162.109 230.64L168.78 223.969L170.398 222.554L188.187 204.764L191.826 200.317L193.848 197.284L196.274 192.837L198.093 188.389L199.306 183.942L200.115 178.888L200.317 174.238L200.115 169.387L199.71 165.95L198.902 162.109L197.487 157.864L195.667 153.821L193.646 150.182L191.22 146.745L188.794 143.915L185.155 140.276L182.931 138.457L180.91 136.839L177.877 134.818L174.441 132.999L169.589 131.179L164.939 129.966L160.694 129.36L158.066 129.158H151.597L146.745 129.764L141.894 130.977L137.648 132.594L133.403 134.616L129.562 137.042L126.732 139.265L124.306 141.489L122.284 143.308L108.74 156.853V157.257L107.931 157.662L88.5243 177.069V177.473L87.7156 177.877V178.282L86.907 178.686V179.09L86.0984 179.494L84.6833 181.112L82.0553 183.74L80.2359 185.963L78.6186 187.985L76.1927 191.624L73.7669 196.273L71.7453 201.327L70.9367 203.955L70.128 208.201L69.7237 213.457V216.489L70.3302 223.767L71.5431 228.214L73.3625 233.066L74.9798 236.3L76.597 239.333L79.0229 242.769L81.4488 245.6L83.4704 247.621L85.0876 249.036L88.12 251.462L90.748 253.282L92.9717 254.494L96.4084 256.314L100.451 257.931L104.495 258.942L109.751 259.751L116.018 259.953L121.274 259.346L127.54 258.133L129.36 257.325L129.158 256.112L128.147 254.494L125.923 251.866L123.093 247.621L121.071 244.185L119.05 239.939L117.23 235.29L115.209 228.416L114.4 224.777L113.794 220.532L113.592 217.096V213.255L113.996 207.392L114.805 202.742L115.815 198.497L117.635 193.039L120.263 186.974L122.284 183.335L125.317 178.888L127.338 176.26L127.743 175.451L127.54 174.441L125.721 172.419L121.88 168.578L121.071 166.961V165.344L121.88 163.726L123.093 162.715L125.115 161.705L135.425 159.077L144.117 156.651L152.406 154.225L157.257 153.214H160.492L162.109 154.023L162.918 155.64L163.12 157.257L162.716 160.087L161.098 166.152L158.47 175.451L156.449 183.538L154.023 191.826L153.012 193.645L151.395 194.656L149.575 194.858L147.15 193.645L144.926 191.826L142.702 189.804L140.074 187.783L139.468 187.985L137.042 191.22L134.818 194.858L133.201 198.295L131.988 201.934L130.775 207.19L130.168 211.839V219.117L130.775 223.969L131.786 228.012L133.807 233.268L135.425 236.503L137.648 240.141L139.468 242.567L141.894 245.397L143.915 247.419L149.575 251.866L151.597 253.282L154.427 254.899L159.279 257.123L164.535 258.74L167.972 259.548L170.802 259.953H177.877L182.931 259.346L188.187 258.133L192.028 256.718L197.082 254.292L199.306 252.877L202.136 250.856L203.956 249.441L206.584 247.217L209.818 244.185L221.745 232.257L223.16 230.64L228.619 225.182L230.236 223.767L244.589 209.414L245.6 208.201L247.015 206.988L247.823 206.179V205.775L248.632 205.37L250.249 203.753L251.26 202.54L252.877 201.125L257.527 196.476L258.942 194.858L263.389 190.411L265.007 188.996L274.508 179.494L275.923 177.877L277.743 176.058L279.562 173.834L281.988 170.802L284.616 166.556L286.233 163.726L287.85 159.683L289.063 155.438L289.67 152.406L290.074 148.16V140.276L289.468 135.02L288.255 130.37L286.435 125.519L284.616 122.082L281.584 117.23L279.36 114.602L278.551 113.592L276.934 112.176L275.115 110.357L271.678 107.729L267.837 105.303L261.974 102.271L258.133 101.058L253.888 100.249L250.249 99.8449H240.344Z" fill="#7C3BED"/>
<path d="M148.363 128.753H159.279L163.322 129.158L165.142 129.764L167.365 130.169L169.589 130.977L168.78 131.179L164.939 130.169L160.694 129.562L158.066 129.36H151.597L146.745 129.966L141.894 131.179L137.648 132.797L133.403 134.818L129.562 137.244L126.732 139.468L124.306 141.691L122.284 143.511L88.7264 177.069L87.7156 178.282L86.3005 179.495L85.8962 180.101H85.4919L85.0876 180.91L82.2574 183.74L80.438 185.964L78.8207 187.985L76.3949 191.624L73.969 196.274L71.9474 201.328L71.1388 203.956L70.3302 208.201L69.9259 213.457V216.489L70.5323 223.767L71.7453 228.214L73.5647 233.066L75.1819 236.301L76.7992 239.333L79.2251 242.77L81.6509 245.6L83.4703 247.419L85.0876 248.834L88.1199 251.26L90.748 253.08L92.9717 254.293L96.4083 256.112L100.451 257.729L104.495 258.74L109.751 259.549L116.018 259.751L121.274 259.144L127.54 257.931L129.158 257.325L128.956 256.112L127.945 254.495L125.721 251.867L122.891 247.621L120.869 244.185L118.848 239.939L117.028 235.29L115.007 228.416L114.198 224.778L113.592 220.532L113.389 217.096V213.255L113.794 207.392L114.602 202.743L115.613 198.497L117.433 193.039L120.061 186.974L122.082 183.336L125.115 178.888L127.136 176.26L127.54 175.452L127.338 174.441L125.519 172.419L121.678 168.578L120.869 166.961V165.344L121.678 163.726L123.093 162.514L125.115 161.503L135.425 158.875L144.117 156.449L152.406 154.023L157.257 153.012H160.492L162.109 153.821L162.918 155.034L163.322 157.257L162.918 160.088L161.301 166.152L158.672 175.452L156.651 183.538L154.225 191.826L153.012 193.848L151.395 194.859L149.575 195.061L147.15 193.848L144.926 192.028L142.702 190.007L140.478 188.187L140.276 187.783L141.287 188.187L142.904 189.198L144.522 190.613V191.018L145.33 191.422L145.532 192.028L146.341 192.433L148.363 193.848V194.252L149.778 194.05L150.586 193.848L151.597 193.646L152.608 192.635L153.416 190.613L154.832 186.368L155.236 185.964V185.155L155.842 182.123H156.044L156.449 179.899L157.662 176.664L157.864 174.845L158.672 172.419L159.279 169.993L159.683 168.983L160.29 167.163L161.098 164.535L161.301 162.514L161.907 160.694L162.311 156.449L162.109 154.832L161.301 154.427L160.896 153.821H156.651L155.236 154.023L154.023 154.427L151.597 154.629V155.034L151.193 155.236L149.373 155.438L148.16 156.045L146.745 156.247L145.532 156.853L143.915 157.257H143.106V157.662L141.287 158.066L139.872 158.47L138.053 158.875L135.02 159.683L131.786 160.694L130.977 160.896L128.349 161.098V161.503L125.721 161.907L125.115 162.716L124.306 163.524L123.295 163.726L123.093 164.333L122.487 164.737L122.284 165.344H121.88V167.163L122.891 168.983L124.508 170.398L125.519 171.408L127.743 174.036L127.945 174.441V175.856L127.338 177.271L126.53 178.484L125.519 179.697L125.317 180.303H124.912L124.508 181.112L123.902 182.527L122.891 183.942H122.487L122.284 184.751L121.274 185.964L120.465 188.187L119.858 188.794L118.848 191.422L117.635 194.454L117.028 196.678L116.826 197.487L116.624 197.891H116.22L116.018 200.721L115.613 201.53L115.007 204.158L114.4 209.818L114.198 215.074L114.4 215.883L114.198 216.691L114.602 222.554L115.007 225.788L115.613 227.001L115.815 229.225L116.22 229.427L116.624 231.853L117.23 232.864L117.635 234.683L118.241 235.694V236.503H118.646L119.05 237.311L119.252 238.726L119.858 239.131L119.656 240.142H120.061L120.869 241.961V242.77H121.274L122.082 244.589L122.487 245.6L122.891 246.004L124.508 248.834L125.317 249.441L125.923 250.856L129.158 254.899L129.966 257.123V258.133L129.562 258.538L126.327 259.549L123.295 260.155L122.689 260.357L121.476 260.559H120.061L119.656 260.762H109.549L109.346 260.559L105.303 260.357L104.292 259.751L102.675 259.346L100.451 258.74L98.6321 258.133L96.4083 257.325L95.8019 256.921L94.5889 256.516L92.3652 255.303L91.9609 255.101V254.697L90.748 254.495L89.535 253.484L88.5243 253.08V252.675L87.9178 252.473V252.069L87.1092 251.867L86.3005 251.058L85.2897 250.452L83.8747 249.441L82.8639 248.43L82.2574 248.026V247.621L81.4488 247.419L79.4272 245.398L77.6078 243.174L77.4057 242.365H77.0013V241.961H76.597L76.1927 241.354V240.748H75.7884L73.969 237.514L73.1604 236.098L71.9474 234.077L70.9366 230.842L70.128 228.821V228.012L69.7237 228.214L69.3194 228.821L69.1172 228.214V226.799L69.5216 226.597V224.98L69.7237 224.373H69.3194L68.7129 220.937V218.309H68.1065L67.7021 216.489L67.9043 212.85V210.829L68.3086 208.807L68.9151 209.009L69.3194 207.392L69.7237 203.551L70.9366 200.317L71.1388 199.912L71.5431 198.093H71.9474L72.3517 196.88L73.3625 194.859L73.5647 194.05H73.1604L72.9582 193.443L73.969 191.624L74.3733 192.433L74.7776 191.826L74.9798 190.815L75.3841 190.613L75.5862 190.007H75.9906L76.3949 188.996L77.0013 188.187L77.6078 187.581L77.81 186.974L78.4164 186.772L79.2251 185.559L79.8315 184.346H80.2358L80.6402 183.538L81.6509 182.325H82.0552L82.4596 181.516L83.6725 180.101L85.0876 179.09L86.0984 177.877L87.7156 177.069L89.1307 175.452H89.535L89.7372 174.643L90.3437 174.441L90.5458 173.834L91.3544 173.228H91.7588V172.217H92.1631V171.813H92.5674V171.408H92.9717V171.004H93.376V170.6L94.1846 170.398L94.5889 169.589H94.9933L95.1954 169.185H95.8019L96.004 168.376L96.6105 168.174L96.8127 167.567H97.4191V167.163L98.2278 166.557H98.6321V166.152H99.0364L99.2385 165.142H99.6428V164.737H100.047V164.333L101.664 163.12L103.282 161.503H103.686L104.09 160.29L104.899 160.088L105.101 159.279L106.516 157.864L107.931 156.651L108.133 156.247H108.538L108.942 155.438L111.772 152.608L113.389 151.193L115.613 149.171L115.815 148.767H116.22V148.363H116.624V147.958H117.028L117.23 147.15H117.635L118.039 146.139L119.454 144.926L120.263 143.915L121.274 143.107H121.678L122.082 142.298L123.902 140.681H124.306L124.71 139.872H125.115L125.519 139.063H125.923V138.659L126.934 137.85L128.349 137.042L131.786 135.02L133.201 134.212L135.222 132.999L136.84 132.797L137.042 132.19L138.659 131.381L138.861 131.179L141.085 130.775L141.691 130.371L143.915 129.764L144.724 129.562L145.937 129.158L147.958 128.956L148.363 128.753Z" fill="#7C3BED"/>
<path d="M88.9286 153.012L89.3329 153.214L87.5135 155.034L86.0984 156.651L83.4704 159.279H83.0661L82.6617 160.088H82.2574L81.8531 161.301L81.2466 161.503L80.8423 162.514H80.438L80.0337 163.322L79.2251 163.726V164.131H78.8208L78.4165 164.939H78.0121L77.6078 165.748L75.9906 167.163L74.5755 168.578L73.5647 169.791H73.1604L72.7561 170.6L72.3518 170.802L72.1496 171.408L70.9367 172.419H70.5324L70.128 173.228L69.7237 173.632L69.3194 174.643L68.1065 176.058L67.5 177.069H67.0957L67.2979 177.675L66.6914 177.877L66.2871 178.686L65.4784 179.495H65.0741L64.872 180.303L64.0634 181.112L63.8612 181.921L63.2547 183.336H62.8504L62.6483 184.751L62.0418 184.953L61.8396 186.166H61.2332L61.031 187.177L60.4245 187.985L60.2224 188.794H59.8181V189.198H59.4138L59.2116 190.209L58.8073 191.22H58.403L58.2008 192.837L57.9987 193.241H57.5944L57.19 195.667L56.5836 197.082L56.1793 198.497L55.3706 201.732L54.562 208.201V209.414L54.3598 210.222L54.1577 212.042V219.117L54.562 223.565L54.9663 224.98L55.3706 227.406L55.7749 227.608V228.012L56.1793 228.214L55.9771 229.629L57.19 229.225L56.9879 227.81L57.5944 227.001L58.403 227.81L58.8073 229.629L59.8181 231.247L60.0202 232.055L61.031 232.662L61.8396 234.683L61.031 235.29L61.2332 237.918L61.8396 239.131V239.939H62.2439L63.2547 241.152H62.6483L63.0526 242.972L63.659 243.983V244.791L64.4677 245.195L65.2763 247.217L65.0741 247.824L64.0634 247.217V246.813L63.2547 246.408V246.004H62.8504L62.4461 244.993L61.6375 244.589L61.4353 244.993L62.0418 245.195L62.4461 246.206H62.8504L64.0634 247.824L65.2763 249.036L66.0849 251.058L66.2871 251.867L67.0957 252.271L67.5 253.686L68.5108 254.495L68.9151 255.708L69.7237 255.91L70.3302 256.516L70.7345 256.718V257.325L71.341 257.527L72.3518 258.538V258.942H72.9582V259.549L73.5647 259.346L73.969 260.357H74.3733L74.7776 261.166L76.1927 262.379H76.597H76.7992L77.4057 262.177L77.0014 261.368L76.3949 260.357L74.9798 259.549V259.144L74.1712 258.74L73.3625 257.729V257.325H72.9582V256.921L71.9475 256.516L70.5324 254.697L70.128 253.888L69.1173 252.877L68.9151 252.271L68.1065 252.069L67.5 251.462L66.8935 251.664L66.0849 250.249L66.2871 249.845L67.2979 250.249L67.7022 250.452V250.856L68.9151 250.654L69.3194 251.058L70.5324 251.462L70.9367 252.069L71.5431 252.271L72.1496 253.686L73.1604 254.495L74.1712 255.101L74.5755 256.516L75.5863 257.527L76.7992 258.336L77.0014 259.144L77.81 259.549L79.0229 261.368L80.8423 262.177L81.0445 262.783L81.8531 262.985L82.8639 263.996L83.2682 264.603H82.6617V265.007L81.2466 264.805V264.4H80.438L80.2359 264.805L81.2466 265.209V265.815L82.6617 266.018L82.8639 267.028L84.0768 267.635V268.039L85.0876 268.443L89.1307 270.465L90.3437 270.869L92.7696 271.88V272.284L93.7803 272.487L96.2062 273.295L99.2386 273.902H101.867L102.069 274.508H106.516L106.921 274.71H108.538L109.144 275.115L112.985 275.519L116.018 275.317L117.028 275.519L120.869 275.115L122.284 274.71H124.306V274.306L125.317 274.104L124.71 273.7L128.147 272.891L130.168 272.689H130.977L132.19 272.891L133.201 272.487L134.414 272.689V272.284L135.222 271.88L136.84 271.678L137.446 271.476V271.072L138.659 270.667L139.468 270.061H140.276L140.478 269.656L140.883 269.859V269.454L142.904 268.443H145.735L150.991 271.072L154.427 272.487L157.055 273.295L158.47 273.497L160.29 274.104L165.142 275.115L168.78 275.519L175.856 275.721L181.921 275.519L182.729 275.115L183.942 274.912L184.144 274.508L184.751 274.71L184.953 274.912L186.974 274.508L187.177 274.306L190.411 273.902L192.23 273.295L193.241 273.093L196.476 271.88L200.115 270.667L201.125 270.263H201.732V269.859L201.328 269.656H202.338L204.158 268.646L205.573 267.837H205.977V267.433L206.988 266.826L209.616 265.007H210.02V264.603L210.829 264.4V263.996L211.84 263.592V263.187L213.255 262.177L214.063 261.772L215.276 260.357L216.894 258.942L218.309 257.527H218.713L219.117 256.718H219.522V256.314L220.937 255.303L221.139 254.697L222.15 254.293L223.363 253.08L223.767 252.271H224.171L224.373 251.664L224.98 251.462L225.182 250.856L225.788 250.654L226.799 249.643L227.406 249.441L227.81 248.632L228.416 247.824H229.023L229.225 247.015L230.236 246.206H230.64L230.842 245.398L231.651 244.589H232.257L232.662 243.78H233.066L233.268 243.174L234.481 242.163L235.088 241.355H235.492L235.694 240.546H236.301L236.705 239.737H237.109L237.311 238.929L238.524 237.918L239.939 236.301L240.748 235.492H241.152L241.354 234.886L241.961 235.088L241.557 235.896L218.713 258.74L217.096 260.155L214.266 262.581L210.222 265.613L205.573 268.646L201.934 270.667L198.093 272.284L193.241 273.902L187.985 275.115L183.538 275.923L179.697 276.328L175.856 276.53H172.217L167.163 276.125L163.929 275.721L156.853 273.902L153.214 272.689L148.363 270.465L145.128 268.848L144.117 269.05L140.681 270.869L136.435 272.689L131.786 274.104L125.721 275.519L119.859 276.328L117.23 276.53H111.772L104.899 275.923L99.2386 274.912L94.7911 273.7L89.1307 271.476L84.6833 269.252L80.2359 266.624L76.3949 263.794L73.7669 261.368L71.7453 259.549L69.3194 257.123L67.9043 255.505L65.8828 253.282L63.659 250.249L60.6267 244.993L57.9987 239.535L56.3814 235.29L54.7642 229.427L53.7534 224.171L53.1469 218.713V211.435L53.7534 205.977L54.7642 200.923L55.9771 196.274L57.3922 192.028L59.8181 186.772L62.4461 182.123L64.872 178.484L67.0957 175.654L69.5216 172.824L72.3518 169.791L81.0445 161.098L81.651 160.29H82.0553V159.886L83.0661 158.875L83.6725 158.673L84.0768 157.864H84.4811L84.8855 157.055H85.2898L85.6941 156.247H86.0984L86.5027 155.438H86.907L87.3113 154.629L88.9286 153.012Z" fill="#7C3BED"/>
<path d="M139.265 187.783L139.468 188.389L138.053 190.007L135.829 193.443L133.807 197.284L132.594 200.519L131.179 205.977L130.371 211.84V219.117L130.977 223.969L131.988 228.012L134.009 233.268L135.627 236.503L137.85 240.141L139.67 242.567L142.096 245.398L143.915 247.217L149.575 251.664L151.597 253.079L154.427 254.697L159.279 256.92L164.535 258.538L167.972 259.346L170.802 259.751H177.877L182.931 259.144L188.187 257.931L192.028 256.516L197.082 254.09L199.306 252.675L202.136 250.654L203.955 249.238L206.584 247.015L209.818 243.982L221.543 232.257L222.958 230.64L223.362 230.842V231.449L222.554 232.257L222.15 233.066H221.745L221.341 233.875L220.937 233.672L220.734 234.279L219.319 235.492L217.298 237.109L214.265 240.141L213.053 241.961L211.637 242.972L211.031 243.78H210.627L210.424 244.589L209.009 245.802L207.999 246.813L205.371 249.036L203.551 250.654L202.136 251.664H201.732L201.327 252.473L199.508 253.484L197.689 254.697H197.082V255.101L192.23 257.325L188.592 258.74L184.953 259.751L182.527 260.357L177.877 260.559L175.249 260.761L170.398 260.559L165.546 259.751L162.513 258.942L161.503 258.336L158.066 257.527L155.438 256.112L154.225 255.707V255.303L151.395 253.888V253.484L150.384 253.079L148.565 251.867V251.462L147.958 251.26L146.947 250.654V250.249L146.139 249.845L144.319 248.834L142.298 247.015L139.468 244.185V243.78H139.063L137.648 241.557L136.637 239.737V239.333H136.233L134.616 236.705L132.999 233.875L131.988 231.247L131.381 229.629V228.012L130.977 227.81L130.573 227.001L130.371 224.373L129.764 221.139L129.562 219.319V212.244L129.764 209.009L130.168 207.19L130.573 204.764L131.179 203.349L131.786 200.721L132.392 198.902L132.999 197.284L133.403 196.071L134.212 194.252L134.818 193.241L135.222 193.039L135.424 192.23L136.435 190.411L137.648 188.592L138.053 188.187L139.265 187.783Z" fill="#7C3BED"/>
<path d="M151.597 112.783H157.662L162.918 113.187L168.578 113.996L171.206 114.602V114.805H169.387L167.567 114.602L165.344 114.198H163.929L162.513 113.794L157.46 113.389H152.204L149.575 113.592L148.16 113.996L144.319 114.4L142.702 114.805L140.478 115.007L139.063 115.613L137.244 116.017L133.201 117.635L130.573 118.645L127.743 120.061L125.923 121.071L123.902 122.284H123.497L123.295 122.891L122.284 123.093L121.476 123.902L120.465 124.71L119.05 125.519H118.646L118.443 126.125L117.433 126.934L116.422 127.54L114.805 128.955L114.602 129.36L113.592 129.966L112.581 130.977H111.974L111.57 131.786L110.761 132.594H110.357L109.953 133.403L108.538 134.616L107.527 135.829H107.123L106.718 136.637L104.292 139.063L102.675 140.478L100.654 142.096L97.217 145.532L96.8127 145.33L112.177 129.966L113.794 128.551L116.826 126.125L119.656 124.104L123.902 121.274L127.136 119.454L131.381 117.433L136.233 115.613L140.883 114.4L146.139 113.389L148.969 112.985L151.597 112.783Z" fill="#7C3BED"/>
<path d="M207.392 205.573L207.796 205.775L207.392 206.786L205.371 209.616L203.147 212.446L200.721 215.276L198.902 217.298L197.689 218.713L177.675 238.726L177.271 239.333H176.867L176.462 240.141L173.228 243.376L171.611 244.791L169.387 246.408L167.365 247.217L166.557 247.419H162.918L160.896 246.61L158.672 244.589L157.46 242.365L156.853 240.141L157.055 237.918L157.662 235.896L158.268 235.088L158.066 236.705L157.662 238.12V241.557L158.268 242.567L158.672 243.578L160.088 245.398L162.513 246.813L163.524 247.015L166.961 246.813L167.567 246.206V246.61L169.791 245.398L171.206 244.185H171.611V243.78H172.015V243.376L173.632 241.961L174.845 240.546L175.654 239.737H176.058V239.333H176.462V238.929H176.867L177.271 238.12L178.08 237.109L179.697 235.694L180.505 234.885H180.91V234.481L182.325 233.268L183.336 232.257L184.549 230.842H184.953V230.438H185.357V230.034H185.761V229.629H186.166V229.225H186.57V228.821H186.974L187.379 228.012L188.187 227.608L188.592 226.799L189.805 225.586H190.209V225.182L191.826 223.565H192.23V223.16L193.848 221.745L194.252 221.139H194.656V220.734H195.061V220.33H195.465L195.869 219.522L196.88 218.309H197.487L197.891 217.298L198.902 216.287L200.317 214.67L202.945 211.435L203.956 210.222L204.562 209.212L205.371 208.403L206.584 206.584L207.392 205.573Z" fill="#7C3BED"/>
<path d="M241.354 234.885L241.961 235.088L241.557 235.896L218.713 258.74L217.096 260.155L214.265 262.581L210.222 265.613L205.573 268.646L201.934 270.667L199.912 271.476L200.317 270.667L201.125 270.263H201.732V269.859L201.327 269.656H202.338L204.158 268.646L205.573 267.837H205.977V267.433L206.988 266.826L209.616 265.007H210.02V264.602L210.829 264.4V263.996L211.84 263.592V263.187L213.255 262.177L214.063 261.772L215.276 260.357L216.893 258.942L218.309 257.527H218.713L219.117 256.718H219.522V256.314L220.937 255.303L221.139 254.697L222.15 254.293L223.362 253.08L223.767 252.271H224.171L224.373 251.664L224.98 251.462L225.182 250.856L225.788 250.654L226.799 249.643L227.406 249.441L227.81 248.632L228.416 247.824H229.023L229.225 247.015L230.236 246.206H230.64L230.842 245.398L231.651 244.589H232.257L232.662 243.78H233.066L233.268 243.174L234.481 242.163L235.088 241.355H235.492L235.694 240.546H236.3L236.705 239.737H237.109L237.311 238.929L238.524 237.918L239.939 236.301L240.748 235.492H241.152L241.354 234.885Z" fill="#7C3BED"/>
<path d="M197.284 157.459H197.689L198.497 159.481L199.306 161.907L199.71 162.716L199.912 164.535L200.317 166.152L200.721 170.802V177.271L200.317 181.718L199.306 186.772L198.699 188.187L198.295 189.602L197.082 192.23L195.465 195.465L194.858 196.476V197.082L194.454 197.486L194.05 197.689V198.093H193.646L193.241 199.104L190.411 202.945L188.996 204.562L187.379 205.977L186.974 206.583H186.57V206.988L184.953 208.403L171.61 221.745L171.206 221.543L187.985 204.764L191.624 200.317L193.646 197.284L196.071 192.837L197.891 188.389L199.104 183.942L199.912 178.888L200.115 174.238L199.912 169.387L199.508 165.95L198.699 162.109L197.284 157.864V157.459Z" fill="#7C3BED"/>
<path d="M144.724 249.643L145.937 250.047L147.756 251.462L149.171 252.473L149.98 253.282V253.686L150.991 253.888L152.608 254.899L155.034 256.314L155.842 256.718V257.123H156.449L156.247 257.729L154.023 257.527V257.931L153.214 258.133V257.527V256.92H152.406L152.608 257.931V258.538L151.193 258.133V257.729H151.597V256.516L150.991 255.505L149.575 254.899L148.969 254.292V253.888L147.958 253.686L146.139 252.877L144.926 250.856L144.522 250.654L144.724 249.643Z" fill="#7C3BED"/>
<path d="M189.198 272.689H190.209L189.602 273.093L187.379 273.497H188.592V273.902L188.996 274.104L188.794 274.306L187.177 274.508L185.964 274.912L184.346 275.115L184.548 274.71L184.144 274.508L183.942 275.115L182.123 275.519L181.92 275.721L175.249 275.923L172.621 275.519L171.61 275.317L172.419 274.912L172.217 274.508L173.834 274.306H179.899L184.953 273.7L186.772 273.295L189.198 272.689Z" fill="#7C3BED"/>
<path d="M215.478 162.109L215.883 162.918L216.489 167.365L216.691 170.6V176.867L216.287 181.718L215.276 187.379L213.861 193.039L212.244 197.486L210.627 201.125L210.222 201.327L210.627 199.508L211.637 197.082L213.053 193.443L213.457 191.826L213.861 190.613L214.265 188.592L214.468 187.985V186.166L215.074 184.346H215.478L215.681 180.708L215.883 179.697L216.287 175.249L215.883 166.152L215.681 165.95L215.478 162.109Z" fill="#7C3BED"/>
<path d="M148.363 128.753H159.279L163.322 129.158L165.141 129.764L167.365 130.169L169.589 130.977L168.78 131.179L164.939 130.169L160.694 129.562L158.066 129.36H151.597L146.745 129.966L141.894 131.179L137.648 132.797L137.042 132.999L136.84 132.392L138.659 131.381L138.861 131.179L141.085 130.775L141.691 130.371L143.915 129.764L144.724 129.562L145.937 129.158L147.958 128.956L148.363 128.753Z" fill="#7C3BED"/>
<path d="M197.891 188.996L198.093 189.804L196.88 192.837L194.858 196.476V197.082L194.454 197.486L194.05 197.689V198.093H193.646L193.241 199.104L190.411 202.945L188.996 204.562L187.379 205.977L186.974 206.583H186.57V206.988L184.953 208.403L171.61 221.745L171.206 221.543L187.985 204.764L191.624 200.317L193.646 197.284L196.071 192.837L197.486 189.4L197.891 188.996Z" fill="#7C3BED"/>
<path d="M127.54 175.451H127.945L127.54 176.867L126.53 178.484L125.519 179.697L125.317 180.303H124.912L124.508 181.112L123.902 182.527L122.891 183.942H122.487L122.284 184.751L121.274 185.964L120.465 188.187L119.858 188.794L118.848 191.422L117.635 194.454L117.028 196.678L116.826 197.486L116.422 197.891L116.018 197.082L117.837 192.028L120.263 186.57L122.082 183.336L125.115 178.888L127.136 176.26L127.54 175.451Z" fill="#7C3BED"/>
<path d="M151.597 112.783H157.662L162.918 113.187L168.578 113.996L171.206 114.602V114.805H169.387L167.567 114.602L165.344 114.198H163.929L162.513 113.794L157.46 113.389H152.204L149.575 113.592L148.16 113.996L144.319 114.4L142.702 114.805H140.883V114.4L146.139 113.389L148.969 112.985L151.597 112.783Z" fill="#7C3BED"/>
<path d="M160.088 243.78L161.301 243.982L161.705 244.791L162.513 245.195L162.716 245.6L163.12 245.398V246.004L164.939 246.206V245.802L167.163 245.195L168.982 244.387H170.195L169.993 245.398L167.972 246.61H167.365L166.961 247.015L163.524 247.217L161.705 246.61L160.694 246.004L160.492 244.185H160.088V243.78Z" fill="#7C3BED"/>
<path d="M223.16 105.101L223.565 105.303L219.319 108.133L216.085 110.761L213.457 113.187L209.616 117.028H209.212L209.009 117.635L207.392 119.05L200.923 125.519V124.912L201.125 124.508H201.53L201.934 123.699L203.349 122.082L204.966 120.667L206.179 119.252L207.796 117.837L208.403 117.23H208.807V116.826H209.212V116.422L210.829 115.007L213.457 112.379L214.67 110.964H215.276L215.478 110.155L216.287 109.751L216.691 109.144L217.298 108.942L218.106 108.133L219.522 107.325L222.15 105.708L223.16 105.101Z" fill="#7C3BED"/>
<path d="M265.007 211.233H265.411L265.209 212.042L262.379 214.872L260.964 216.489L256.516 220.937L254.899 222.352L249.845 227.406H249.239L249.643 226.597H250.047L250.451 225.788H250.856L251.26 224.98H251.664L252.069 224.171L254.495 221.745H254.899L255.303 220.937L255.91 220.735L256.112 220.128H256.516L256.718 219.522L257.931 218.511L258.538 217.702H258.942L259.144 217.096L260.559 215.883L260.761 215.478H261.166L261.57 214.67L262.985 213.457L263.187 213.053H263.794L263.996 212.244L265.007 211.233Z" fill="#7C3BED"/>
<path d="M207.392 205.573L207.796 205.775L207.392 206.786L205.371 209.616L203.147 212.446L200.721 215.276L198.902 217.298L197.689 218.713L194.858 221.543L194.252 221.139H194.656V220.734H195.061V220.33H195.465L195.869 219.522L196.88 218.309H197.487L197.891 217.298L198.902 216.287L200.317 214.67L202.945 211.435L203.956 210.222L204.562 209.212L205.371 208.403L206.584 206.584L207.392 205.573Z" fill="#7C3BED"/>
<path d="M202.743 100.451L203.147 100.654L202.338 101.664L201.125 102.675L200.519 103.484H200.115L199.71 104.292H199.306V104.697L198.295 105.505L196.88 107.123L194.05 109.953L192.837 110.964L192.433 111.57H192.028L191.624 112.379L190.815 113.187H190.411L190.007 113.996L189.198 114.805H188.794L188.996 113.996L191.422 111.57H191.826L192.028 110.964L193.241 109.953L194.656 108.336L200.115 102.877L201.732 101.462L202.743 100.451Z" fill="#7C3BED"/>
<path d="M241.354 234.885L241.961 235.088L241.557 235.896L231.651 245.802L230.842 245.398L231.651 244.589H232.257L232.662 243.78H233.066L233.268 243.174L234.481 242.163L235.088 241.355H235.492L235.694 240.546H236.301L236.705 239.737H237.109L237.311 238.929L238.524 237.918L239.939 236.301L240.748 235.492H241.152L241.354 234.885Z" fill="#7C3BED"/>
<path d="M154.225 153.619L155.034 154.023L154.427 154.427H153.012L151.597 154.629V155.034L151.193 155.236L149.373 155.438L148.16 156.045L146.745 156.247L145.532 156.853L143.915 157.257H143.106V157.662L141.287 158.066L139.872 158.47H138.457V158.066L146.947 155.64L151.597 154.225L154.225 153.619Z" fill="#7C3BED"/>
<path d="M215.074 184.346L215.276 185.155L215.074 185.964H215.478L215.074 188.187L213.861 193.039L212.244 197.487L210.627 201.125L210.222 201.328L210.627 199.508L211.637 197.082L213.053 193.443L213.457 191.826L213.861 190.613L214.265 188.592L214.468 187.985V186.166L215.074 184.346Z" fill="#7C3BED"/>
<path d="M148.363 128.753H149.98L149.171 129.158L149.373 129.562L145.734 130.169L141.287 131.381L137.042 132.999L136.84 132.392L138.659 131.381L138.861 131.179L141.085 130.775L141.691 130.371L143.915 129.764L144.724 129.562L145.937 129.158L147.958 128.956L148.363 128.753Z" fill="#7C3BED"/>
<path d="M197.487 270.263L198.093 270.465L199.104 270.869L198.902 271.273L197.487 271.88L193.848 273.093H192.837L192.433 272.486L194.454 271.071L196.274 270.869L197.487 270.263Z" fill="#7C3BED"/>
<path d="M137.648 158.268H138.457V158.672L136.637 159.279L135.02 159.683L131.786 160.694L130.977 160.896L128.349 161.098V161.503L125.721 161.907V161.3L135.425 158.875L137.648 158.268Z" fill="#7C3BED"/>
<path d="M200.317 176.26H200.519V179.697L200.115 182.527L199.306 186.368L199.104 187.176L198.295 189.602L197.689 189.198L198.295 186.974L199.508 181.92L200.115 176.462L200.317 176.26Z" fill="#7C3BED"/>
<path d="M87.5134 155.438L87.7156 155.842H88.1199L87.7156 156.853L85.8962 159.077L85.4919 159.481H84.8854V160.29L83.4703 161.098L83.066 161.907H82.6617L82.4595 162.311L82.2574 161.503H82.6617L83.066 160.29L83.6725 160.088L84.0768 159.279H84.6833L84.4811 158.672L85.2897 158.268L85.8962 157.257L87.3113 155.842L87.5134 155.438Z" fill="#7C3BED"/>
<path d="M88.9286 153.012L89.3329 153.214L87.5135 155.034L86.0984 156.651L83.4703 159.279H83.066L82.6617 160.088H82.2574L81.8531 161.301L81.2466 161.503V161.907L80.438 162.311L77.2035 165.546V164.939L81.0445 161.098L81.6509 160.29H82.0552V159.886L83.066 158.875L83.6725 158.673L84.0768 157.864H84.4811L84.8854 157.055H85.2897L85.6941 156.247H86.0984L86.5027 155.438H86.907L87.3113 154.629L88.9286 153.012Z" fill="#7C3BED"/>
<path d="M159.683 112.985L162.918 113.187L168.578 113.996L171.206 114.602V114.805H169.387L167.567 114.602L165.344 114.198H163.929L162.513 113.794L157.46 113.389V113.187L159.683 112.985Z" fill="#7C3BED"/>
<path d="M160.088 243.78L161.301 243.982L161.705 244.791L162.513 245.195L162.716 245.6L163.12 245.398V246.004H164.131L164.333 247.015L165.141 247.217H163.524L161.705 246.61L160.694 246.004L160.492 244.185H160.088V243.78Z" fill="#7C3BED"/>
<path d="M169.185 223.565L169.589 223.969L168.578 224.575L166.557 226.597L165.748 227.81L164.939 228.619L164.333 228.821L163.322 230.236L161.907 231.449L160.896 232.662L159.279 234.077L158.672 234.481L159.077 233.673L161.907 230.64L168.78 223.767L169.185 223.565Z" fill="#7C3BED"/>
<path d="M96.6105 145.532V146.139L94.3868 148.565L93.7803 149.575L92.9717 150.384H92.5674L92.1631 151.193H91.7588L91.3544 152.001L89.9394 152.81L89.3329 153.012L89.535 152.406L91.1523 150.99L96.6105 145.532Z" fill="#7C3BED"/>
<path d="M189.198 272.689H190.209L189.602 273.093L187.379 273.497H188.592V273.902L188.996 274.104L188.794 274.306L187.177 274.508L185.964 274.912L184.346 275.115L184.549 274.71L184.144 274.508L183.942 275.115L183.336 274.912L183.942 274.71V274.306H184.953L185.155 273.7L186.772 273.295L189.198 272.689Z" fill="#7C3BED"/>
<path d="M255.505 220.734H255.91L255.708 221.543L249.845 227.406H249.239L249.643 226.597H250.047L250.451 225.788H250.856L251.26 224.98H251.664L252.069 224.171L254.495 221.745H254.899L255.303 220.937L255.505 220.734Z" fill="#7C3BED"/>
<path d="M236.3 84.0769H238.12L237.311 84.4812L233.672 85.0877L231.651 85.6942L229.629 86.0985L228.619 86.5028L226.799 86.9071L225.991 87.3114H225.182V86.9071L228.214 85.8963L235.088 84.2791L236.3 84.0769Z" fill="#7C3BED"/>
<path d="M222.958 230.64L223.363 230.842V231.449L222.554 232.257L222.15 233.066H221.745L221.341 233.875L220.937 233.672L220.734 234.279L219.319 235.492L218.106 236.301L218.309 235.492L221.543 232.257L222.958 230.64Z" fill="#7C3BED"/>
<path d="M205.977 267.433L206.584 267.635L205.573 268.646L201.934 270.667L199.912 271.476L200.317 270.667L201.125 270.263H201.732V269.858L201.327 269.656H202.338L204.158 268.646L205.573 267.837H205.977V267.433Z" fill="#7C3BED"/>
<path d="M199.306 215.681L199.71 215.883L199.508 216.691L197.891 218.309L196.476 219.926L194.858 221.543L194.252 221.139H194.656V220.735H195.061V220.33H195.465L195.869 219.522L196.88 218.309H197.487L197.891 217.298L198.902 216.287L199.306 215.681Z" fill="#7C3BED"/>
<path d="M152.608 271.273L153.619 271.678H155.034L156.449 272.082V272.486H156.853L157.055 272.082V272.689H157.46L157.257 273.295L155.438 273.093L153.012 272.082V271.678H152.608V271.273Z" fill="#7C3BED"/>
<path d="M197.486 270.263L198.093 270.465L199.104 270.869L198.902 271.273L197.486 271.88L195.667 272.284L194.656 272.082L195.263 271.678L196.274 271.071L196.88 270.465L197.486 270.263Z" fill="#7C3BED"/>
<path d="M212.85 194.05L213.255 194.858L211.637 198.902L210.425 201.327L210.222 200.721L211.031 198.497L212.446 195.061L212.85 194.05Z" fill="#7C3BED"/>
<path d="M224.373 87.1091H224.98V87.5134L221.947 88.5242L219.926 89.3329L216.894 90.7479L216.287 91.1523L215.681 90.9501L219.522 88.9285L224.373 87.1091Z" fill="#7C3BED"/>
<path d="M175.047 275.115H175.451V275.519L177.271 275.317H179.899L180.708 275.115H182.729L181.92 275.721L175.249 275.923L174.036 275.721L174.441 275.317L175.047 275.115Z" fill="#7C3BED"/>
<path d="M143.511 156.651L143.915 156.853V157.257H143.106V157.662L141.287 158.066L139.872 158.47H138.457V158.066L143.511 156.651Z" fill="#7C3BED"/>
<path d="M141.691 257.325L142.702 257.527L143.106 258.538L142.904 259.346L141.691 259.144L140.883 259.346V258.74L141.085 258.335H141.489L141.691 257.325Z" fill="#7C3BED"/>
<path d="M258.74 84.8855L260.559 85.0877L265.007 86.3006L266.624 86.9071L266.22 87.1092L261.57 85.8963L259.548 85.6941L258.74 85.2898V84.8855Z" fill="#7C3BED"/>
<path d="M102.877 139.265L103.282 139.468L102.675 140.478L100.654 142.096L97.217 145.532L96.8127 145.33L102.877 139.265Z" fill="#7C3BED"/>
<path d="M185.155 140.276L185.964 140.681L188.389 142.904V143.309H188.794V143.713H189.198L191.422 146.543L191.22 146.948L188.592 143.915L185.155 140.479V140.276Z" fill="#7C3BED"/>
<path d="M168.78 244.387H170.195L169.993 245.398L167.972 246.61H167.567L168.174 244.791L168.78 244.387Z" fill="#7C3BED"/>
<path d="M200.317 176.26H200.519V179.697L200.115 182.527L199.508 182.325L200.115 176.462L200.317 176.26Z" fill="#7C3BED"/>
<path d="M117.433 193.039H118.039L117.837 194.05L117.028 196.678L116.826 197.487L116.422 197.891L116.018 197.082L117.433 193.039Z" fill="#7C3BED"/>
<path d="M173.43 240.142L174.643 240.344V240.95L173.228 241.557L172.621 241.759V242.163L171.004 242.77L170.6 242.972L171.004 242.163L172.419 241.152L173.43 240.142Z" fill="#7C3BED"/>
<path d="M158.066 235.088L158.268 235.896L157.662 238.12L157.46 241.557L157.055 241.152L156.853 238.929L157.46 236.301L158.066 235.088Z" fill="#7C3BED"/>
<path d="M197.284 157.459H197.689L198.497 159.481L199.306 161.907L199.71 162.716V163.928H199.508V162.918H198.902L197.891 159.481L197.284 157.459Z" fill="#7C3BED"/>
<path d="M187.985 115.007L188.389 115.209L186.974 116.826L186.57 117.433H186.166L185.964 118.241L185.761 118.646L184.751 119.252L183.74 119.656L184.953 118.241L187.379 115.613L187.985 115.007Z" fill="#7C3BED"/>
<path d="M158.47 272.891H159.077V273.295L159.683 273.093L160.694 273.699H162.109V274.104L160.29 274.306L157.662 273.497V273.093L158.47 272.891Z" fill="#7C3BED"/>
<path d="M215.478 162.109L215.883 162.918L216.489 167.365L216.287 171.004H216.085L215.883 166.152L215.681 165.95L215.478 162.109Z" fill="#7C3BED"/>
<path d="M148.362 128.753H149.98L149.171 129.158L149.373 129.562L145.532 130.169L145.937 129.158L147.958 128.956L148.362 128.753Z" fill="#7C3BED"/>
<path d="M154.225 153.619L155.034 154.023L154.427 154.427H153.012L151.597 154.629V155.034L151.193 155.236H149.575V154.832L154.225 153.619Z" fill="#7C3BED"/>
<path d="M200.519 170.802H200.721V177.271L200.115 176.462V172.621H200.317L200.519 170.802Z" fill="#7C3BED"/>
<path d="M162.513 129.158L163.929 129.36L165.141 129.764L167.365 130.168L169.589 130.977L168.78 131.179L164.939 130.168L162.513 129.764V129.158Z" fill="#7C3BED"/>
<path d="M178.282 236.503L178.484 237.109H178.08L177.675 237.918L176.867 238.929H176.462V239.333L175.047 239.737V239.333L176.26 238.322H176.664L176.867 237.716L177.069 237.311H177.473L177.675 236.907L178.282 236.503Z" fill="#7C3BED"/>
<path d="M161.503 154.629L162.109 154.832L162.513 156.651L162.109 160.694L161.705 161.705L161.503 161.098L161.907 157.864L162.109 155.842H161.503V154.629Z" fill="#7C3BED"/>
<path d="M151.597 112.783H153.012L152.81 113.187L152.204 113.389L149.575 113.592L148.16 113.996H147.15L147.958 113.592L148.969 113.187V112.985L151.597 112.783Z" fill="#7C3BED"/>
<path d="M191.422 111.57H192.028L191.624 112.379L190.815 113.187H190.411L190.007 113.996L189.198 114.805H188.794L188.996 113.996L191.422 111.57Z" fill="#7C3BED"/>
<path d="M223.16 105.101L223.565 105.303L218.106 108.942L218.511 108.133L220.734 106.516L223.16 105.101Z" fill="#7C3BED"/>
<path d="M207.392 205.573L207.796 205.775L207.392 206.786L205.977 208.807L205.168 208.605L206.381 206.988L207.19 205.775L207.392 205.573Z" fill="#7C3BED"/>
<path d="M81.0445 161.098L81.8531 161.301L81.2466 161.503V161.907L80.438 162.311L77.2035 165.546V164.939L81.0445 161.098Z" fill="#7C3BED"/>
<path d="M81.8531 167.77L83.066 168.174L82.6617 169.185L81.6509 169.387L81.4487 169.791L81.2466 169.387L81.4487 167.972L81.8531 167.77Z" fill="#7C3BED"/>
<path d="M236.3 84.0769H238.12L237.311 84.4812L233.672 85.0877L232.662 85.2898L232.459 84.8855L236.3 84.0769Z" fill="#7C3BED"/>
<path d="M191.826 271.88L192.23 272.082L191.826 272.891L191.422 273.497L190.209 273.902H188.996V273.7L190.209 273.295L190.613 272.487L191.826 271.88Z" fill="#7C3BED"/>
<path d="M96.6105 145.532V146.139L94.3868 148.565L93.376 149.373L93.5781 148.565L96.6105 145.532Z" fill="#7C3BED"/>
<path d="M166.961 113.794L170.398 114.4L171.206 114.804H169.387L167.567 114.602L165.748 114.198V113.996L166.961 113.794Z" fill="#7C3BED"/>
<path d="M254.495 84.0769L257.123 84.2791L258.538 84.6834V85.0877L256.314 84.8855L254.495 84.4812V84.0769Z" fill="#7C3BED"/>
<path d="M165.95 246.004H167.567L167.365 246.813L166.557 247.015L164.737 246.813L164.535 246.408L165.95 246.004Z" fill="#7C3BED"/>
<path d="M198.699 186.368H199.104L199.306 186.974L198.699 188.187L198.295 189.602L197.689 189.198L198.295 186.974L198.699 186.368Z" fill="#7C3BED"/>
<path d="M85.2897 166.759H86.5027L86.0984 167.567L84.8854 167.972L83.6725 167.365L83.8746 166.961L85.2897 166.759Z" fill="#7C3BED"/>
<path d="M193.646 197.689L193.848 198.093L192.433 200.317L191.22 201.125L191.624 200.317L193.241 198.093L193.646 197.689Z" fill="#7C3BED"/>
<path d="M77.4056 166.354H77.6078V167.365L76.597 168.578L75.7884 169.387L75.5862 168.78L75.7884 168.174H76.1927V167.567H76.597V167.163H77.0013V166.759H77.4056V166.354Z" fill="#7C3BED"/>
<path d="M147.554 113.187H149.373L148.767 113.592L147.15 113.996H145.33L145.532 113.592L147.554 113.187Z" fill="#7C3BED"/>
<path d="M230.842 245.6H231.449L231.045 246.408L229.629 247.823L229.023 247.621L229.427 246.813L230.236 246.206H230.64L230.842 245.6Z" fill="#7C3BED"/>
<path d="M222.352 231.853L222.554 232.257L222.15 233.066H221.745L221.341 233.875L220.937 233.672L220.734 234.279L219.724 235.088V234.481L222.352 231.853Z" fill="#7C3BED"/>
<path d="M199.306 215.681L199.71 215.883L199.508 216.691L197.689 218.511L197.487 217.904L198.902 216.287L199.306 215.681Z" fill="#7C3BED"/>
<path d="M248.834 227.406L249.441 227.81L247.419 229.831L247.015 229.629L247.217 229.023L248.228 228.012L248.834 227.406Z" fill="#7C3BED"/>
<path d="M169.185 223.565L169.589 223.969L168.578 224.575L166.557 226.597L166.152 227.204L165.546 227.001L168.78 223.767L169.185 223.565Z" fill="#7C3BED"/>
<path d="M288.255 157.864H288.457V159.279L287.446 161.907H287.042L287.244 160.694L288.255 157.864Z" fill="#7C3BED"/>
<path d="M274.104 109.549L274.912 109.953L276.53 111.368L277.945 112.581L277.743 112.985L276.125 111.57L274.104 109.751V109.549Z" fill="#7C3BED"/>
<path d="M273.093 203.147L273.497 203.349L273.093 204.158L271.88 205.371L271.071 205.169H271.476V204.764H271.88L272.284 203.956H272.689L273.093 203.147Z" fill="#7C3BED"/>
<path d="M135.627 241.152L136.637 241.557L137.042 242.77L136.84 243.376L136.435 242.567L136.031 242.972L135.627 242.163V241.152Z" fill="#7C3BED"/>
<path d="M258.74 84.8855L260.559 85.0877L261.974 85.492V85.6941H259.548L258.74 85.2898V84.8855Z" fill="#7C3BED"/>
<path d="M197.891 188.996L198.093 189.804L197.284 191.624L196.678 191.826L197.284 190.007L197.891 188.996Z" fill="#7C3BED"/>
<path d="M88.9285 161.907L89.7372 162.513L88.7264 162.918L88.3221 163.524H87.3113L87.9177 163.322L88.3221 162.109L88.9285 161.907Z" fill="#7C3BED"/>
<path d="M102.877 139.265L103.282 139.468L102.675 140.478L101.058 141.691L100.654 141.489L102.877 139.265Z" fill="#7C3BED"/>
<path d="M162.918 246.206L163.929 246.408L164.333 246.611V247.015L165.141 247.217H163.524L162.513 247.015L162.918 246.206Z" fill="#7C3BED"/>
<path d="M161.098 231.449L161.503 231.853L158.875 234.481V233.875L161.098 231.449Z" fill="#7C3BED"/>
<path d="M213.659 191.22L214.063 192.028L213.457 194.252L213.053 194.454L213.255 192.231L213.659 191.22Z" fill="#7C3BED"/>
<path d="M121.071 185.559L121.274 185.964L120.465 188.187L119.858 187.783L120.263 186.57L120.667 185.761L121.071 185.559Z" fill="#7C3BED"/>
<path d="M198.699 160.492H198.902L199.508 162.311L199.71 162.716V163.929H199.508V162.918H198.902L198.497 161.503L198.699 160.492Z" fill="#7C3BED"/>
<path d="M188.592 143.511L189.198 143.713L191.422 146.543L191.22 146.947L188.592 143.915V143.511Z" fill="#7C3BED"/>
<path d="M205.371 98.0256L205.775 98.2278L203.349 100.654L202.945 100.249L205.371 98.0256Z" fill="#7C3BED"/>
<path d="M160.896 163.726L161.301 163.928L160.896 165.748L160.492 167.163L160.088 166.961L160.492 165.344L160.694 164.333L160.896 163.726Z" fill="#7C3BED"/>
<path d="M289.265 154.023L289.468 154.832L289.265 156.651L288.659 157.864L288.457 157.055L289.265 154.023Z" fill="#7C3BED"/>
<path d="M159.683 112.985H160.896L161.098 113.592H159.077L157.46 113.389V113.187L159.683 112.985Z" fill="#7C3BED"/>
<path d="M168.78 244.387H170.195V245.195L168.376 245.398L168.174 244.791L168.78 244.387Z" fill="#7C3BED"/>
<path d="M92.9717 149.575L93.376 149.778L92.9717 150.384H92.5674L92.1631 151.193H91.7588L91.3545 152.001L90.748 152.203L90.9501 151.597H91.3545L91.7588 150.788L92.5674 149.98H92.9717V149.575Z" fill="#7C3BED"/>
<path d="M227.608 86.0984L228.619 86.3005V86.5027L226.799 86.907L225.991 87.3113H225.182V86.907L227.608 86.0984Z" fill="#7C3BED"/>
<path d="M83.2681 158.672L83.6725 158.875L83.4703 159.279H83.066L82.6617 160.087H82.2574L82.0552 161.098H81.2466L81.6509 160.29H82.0552V159.885L83.066 158.875L83.2681 158.672Z" fill="#7C3BED"/>
<path d="M201.327 269.656L202.136 269.858L201.732 270.263V269.858L201.327 269.656ZM201.125 270.263H201.732L201.53 270.869L199.912 271.476L200.317 270.667L201.125 270.263Z" fill="#7C3BED"/>
<path d="M199.104 162.918H199.508L199.912 164.535V165.748L199.508 165.95L199.104 163.726V162.918Z" fill="#7C3BED"/>
<path d="M212.85 194.05L213.255 194.858L212.446 196.678H212.244L212.446 195.061L212.85 194.05Z" fill="#7C3BED"/>
<path d="M289.872 186.368H290.276L289.872 187.177L288.457 188.592L288.052 188.187L288.861 187.783L289.265 186.974H289.67L289.872 186.368Z" fill="#7C3BED"/>
<path d="M215.681 183.133H215.883L215.681 185.357L215.478 185.963H215.074L215.276 184.346L215.681 183.133Z" fill="#7C3BED"/>
<path d="M293.107 182.325L293.309 183.133L292.096 184.548L291.489 184.346L292.5 183.133H292.904L293.107 182.325Z" fill="#7C3BED"/>
<path d="M277.945 112.985L278.753 113.389L280.168 115.007L279.966 115.411L278.551 113.996V113.592L277.945 113.389V112.985Z" fill="#7C3BED"/>
<path d="M156.247 153.214L156.853 153.417L156.651 153.821L155.034 154.023L154.427 153.821L156.247 153.214Z" fill="#7C3BED"/>
<path d="M246.408 230.034L246.813 230.438L246.004 231.449H245.6V231.853H245.195L245.397 230.842L246.408 230.034Z" fill="#7C3BED"/>
<path d="M112.177 151.395L112.379 152.001H111.974V152.406L111.368 152.81H110.761L111.166 151.799L111.772 151.597L112.177 151.799V151.395Z" fill="#7C3BED"/>
</svg>
